<svg version="1.1" id="Layer_1" xmlns="http://www.w3.org/2000/svg" xmlns:xlink="http://www.w3.org/1999/xlink" x="0px" y="0px"
	 width="100%" viewBox="0 0 480 480" enable-background="new 0 0 480 480" xml:space="preserve">
<path fill="#000000" opacity="1.000000" stroke="none" 
	d="
M340.469727,171.424744 
	C338.964142,161.813492 338.678192,152.414200 334.986664,143.690979 
	C327.246063,125.399704 309.338013,115.630264 289.736389,118.607330 
	C281.237183,119.898163 273.239716,122.574181 265.447540,125.967102 
	C252.518311,131.596848 239.699020,131.578278 226.674332,126.194855 
	C218.065063,122.636444 209.324631,118.903587 199.932358,118.408432 
	C175.667374,117.129196 157.776245,131.982147 153.408890,156.582275 
	C152.508163,161.655807 151.592651,166.793076 151.453491,171.921829 
	C151.153046,182.994583 147.644440,192.943695 142.951874,202.864197 
	C137.071899,215.294937 136.268097,228.708008 137.648178,242.403564 
	C131.327988,244.672470 129.265213,243.679504 129.795029,237.193481 
	C132.018723,209.970764 130.241272,182.397400 135.912354,155.501724 
	C142.713928,123.244576 162.008148,100.778564 191.782730,86.986359 
	C207.893173,79.523666 224.974335,74.936180 242.479080,75.134636 
	C281.777588,75.580177 316.584106,87.048515 341.087036,120.479805 
	C351.596893,134.819321 355.951050,151.259201 358.107635,168.414093 
	C360.040283,183.787598 359.933624,199.296906 360.348236,214.777969 
	C360.560822,222.714340 361.370422,230.677856 361.285706,238.653824 
	C361.266388,240.471375 362.014679,243.075195 358.847900,243.136444 
	C355.908325,243.193283 356.110809,240.733597 355.895081,238.818512 
	C355.149872,232.202942 354.547302,225.570847 353.756134,218.961105 
	C353.100891,213.487000 352.230438,207.896332 349.413330,203.165665 
	C343.630310,193.454483 340.953003,183.018784 340.469727,171.424744 
z"/>
</svg>