<svg xmlns="http://www.w3.org/2000/svg" version="1.0" width="1890.000000pt" height="1417.000000pt" viewBox="0 0 1890.000000 1417.000000" preserveAspectRatio="xMidYMid meet">

<g transform="translate(0.000000,1417.000000) scale(0.100000,-0.100000)" fill="#3b2c25" stroke="none">
<path d="M8855 4825 c-133 -28 -229 -71 -318 -143 -33 -27 -47 -32 -71 -28 -22 4 -41 -1 -66 -16 -19 -11 -59 -34 -89 -51 -73 -40 -173 -110 -249 -174 -66 -55 -80 -61 -100 -41 -34 34 -141 -99 -173 -216 -54 -193 -55 -393 -4 -436 23 -19 52 4 226 181 86 88 163 159 171 159 8 0 59 18 113 40 54 22 114 40 134 40 58 0 329 71 416 109 11 5 34 14 50 22 17 7 68 14 115 14 91 1 171 22 267 69 29 14 56 26 59 26 4 0 26 16 50 35 48 40 73 44 99 15 27 -30 196 -108 295 -137 61 -18 97 -23 130 -18 37 5 62 0 140 -30 146 -54 340 -105 403 -105 55 0 161 -32 266 -81 28 -13 103 -78 205 -178 209 -205 242 -218 265 -110 42 196 -25 455 -149 577 -36 34 -45 38 -55 22 -13 -21 -49 -9 -98 34 -61 51 -164 120 -298 200 -86 51 -99 56 -122 45 -22 -10 -31 -7 -91 39 -78 60 -132 86 -244 118 -160 45 -371 41 -490 -9 -169 -71 -190 -71 -364 -1 -121 49 -274 59 -423 29z" fill="#3b2c25"/>
<path d="M6554 4403 c29 -212 183 -699 286 -903 54 -107 137 -227 173 -249 19 -12 50 -48 71 -83 44 -74 36 -61 111 -177 33 -51 81 -120 108 -154 26 -34 55 -73 64 -87 45 -66 112 -134 145 -149 24 -10 88 -70 175 -161 234 -246 392 -373 566 -454 67 -32 85 -36 122 -30 39 5 49 2 98 -30 30 -20 57 -36 61 -36 3 0 24 -11 46 -25 38 -24 62 -34 180 -75 30 -10 100 -35 155 -55 55 -20 131 -43 168 -52 62 -14 70 -14 86 1 22 20 42 20 89 0 71 -29 242 -57 317 -50 71 6 183 32 243 57 30 13 34 12 43 -4 6 -10 22 -17 37 -17 81 1 311 85 462 169 19 11 82 42 140 70 81 39 115 50 150 49 65 -1 171 56 340 184 102 77 340 325 392 409 11 17 32 33 57 40 46 14 102 75 209 231 12 18 38 56 57 83 19 28 41 64 50 80 40 82 161 265 175 265 31 0 293 513 338 665 78 261 102 363 102 438 0 42 -4 77 -9 77 -14 0 -58 -61 -63 -85 -2 -11 -20 -31 -40 -44 -29 -19 -39 -33 -48 -72 -7 -27 -16 -52 -21 -55 -5 -3 -9 -17 -9 -32 0 -15 -9 -45 -20 -67 -11 -22 -20 -49 -20 -60 0 -12 -18 -57 -40 -101 -22 -43 -40 -83 -40 -87 0 -5 -18 -34 -40 -66 -22 -31 -40 -61 -40 -67 0 -6 -15 -25 -34 -43 -24 -23 -40 -31 -53 -27 -20 6 -56 -32 -79 -84 -30 -68 -338 -374 -423 -421 -20 -11 -56 -36 -81 -55 l-44 -36 -21 26 -21 26 -169 -112 c-232 -152 -327 -192 -495 -205 l-95 -8 0 -30 0 -30 -90 -3 c-49 -2 -112 1 -140 7 -27 5 -93 16 -145 24 -83 13 -386 63 -447 73 -66 12 21 113 153 178 164 81 217 123 258 208 13 26 29 54 36 63 12 14 15 14 32 -2 26 -23 37 -4 28 46 -17 91 -71 153 -149 167 -45 9 -145 -8 -286 -48 -105 -29 -116 -30 -236 -25 -69 4 -146 11 -170 16 -24 6 -81 15 -127 22 -220 31 -282 -4 -269 -151 4 -46 13 -68 52 -123 54 -78 77 -84 85 -24 3 21 10 38 15 39 6 1 26 -26 45 -60 45 -80 124 -163 191 -201 67 -39 115 -78 107 -87 -4 -3 -37 -10 -75 -14 -95 -12 -237 -34 -453 -70 -207 -35 -385 -51 -413 -37 -13 6 -18 16 -14 33 6 32 -8 40 -68 42 -65 2 -200 37 -264 67 -28 14 -54 25 -57 25 -7 0 -48 26 -238 152 l-119 79 -24 -22 -23 -23 -28 22 c-15 12 -40 29 -57 38 -35 19 -135 97 -218 169 -91 79 -224 243 -271 334 -15 28 -22 32 -45 28 -15 -3 -31 -3 -37 1 -55 39 -172 266 -233 452 -59 181 -67 199 -96 210 -15 6 -34 29 -51 62 -49 98 -81 117 -70 41z m3006 -1573 c0 -5 -4 -10 -10 -10 -5 0 -10 5 -10 10 0 6 5 10 10 10 6 0 10 -4 10 -10z" fill="#3b2c25"/>
</g>
</svg>